<?xml version="1.0" encoding="UTF-8"?>
<svg width="1281px" height="1281px" viewBox="0 0 1281 1281" version="1.1" xmlns="http://www.w3.org/2000/svg" xmlns:xlink="http://www.w3.org/1999/xlink">
    <!-- Generator: Sketch 57.1 (83088) - https://sketch.com -->
    <title>Slice 1</title>
    <desc>Created with Sketch.</desc>
    <g id="Page-1" stroke="none" stroke-width="1" fill="none" fill-rule="evenodd">
        <g id="noun_menu_848364" fill="#000000" fill-rule="nonzero">
            <g id="Group" transform="translate(0.070480, 0.697000)">
                <path d="M596.68816,1279.0388 C576.09869,1277.2838 550.93326,1274.2236 534.83855,1271.5178 C302.555428,1232.4666 111.30914,1070.3302 34.44612,847.291 C19.81876,804.8457 9.29118,757.6661 3.35086,707.9369 C0.12224,680.9085 0.12224,598.7152 3.35086,571.6868 C21.05808,423.4512 81.50191,295.5824 182.8887,191.875 C287.025968,85.3541 419.583416,20.9686 572.31315,2.7245 C599.34148,-0.5041 681.53484,-0.5041 708.56317,2.7245 C861.2929,20.9686 993.85035,85.3541 1097.98762,191.875 C1199.37442,295.5824 1259.81821,423.4512 1277.52546,571.6868 C1280.75409,598.7152 1280.75409,680.9085 1277.52546,707.9369 C1259.81821,856.1725 1199.37442,984.0413 1097.98762,1087.7487 C994.05379,1194.0615 860.98963,1258.7698 709.18817,1276.8196 C693.20293,1278.7204 611.79265,1280.3262 596.68816,1279.0388 Z M928.62388,927.2137 C929.08217,926.4721 929.04248,905.3784 928.53558,880.3387 L927.61421,834.8119 L640.43811,834.8119 L353.262008,834.8119 L352.340588,880.3387 C351.833788,905.3784 351.794098,926.4721 352.252388,927.2137 C353.433438,929.1246 927.44278,929.1246 928.62383,927.2137 L928.62388,927.2137 Z M928.54648,662.9369 C929.04847,650.2181 929.04847,629.4056 928.54648,616.6868 L927.63378,593.5618 L640.43812,593.5618 L353.242458,593.5618 L352.329758,616.6868 C351.827768,629.4056 351.827768,650.2181 352.329758,662.9369 L353.242458,686.0619 L640.43812,686.0619 L927.63378,686.0619 L928.54648,662.9369 Z M927.09615,443.8743 C927.4017,443.3587 928.06294,422.265 928.56557,396.9993 L929.47943,351.0618 L640.43812,351.0618 L351.396808,351.0618 L352.310668,396.9993 C352.813298,422.265 353.474538,443.3587 353.780088,443.8743 C354.506538,445.1002 926.3697,445.1002 927.09615,443.8743 Z" id="Shape"></path>
            </g>
        </g>
    </g>
</svg>